<?xml version="1.0" encoding="UTF-8"?>
<svg xmlns="http://www.w3.org/2000/svg" width="81.28mm" height="128.5mm" viewBox="0 0 81.28 128.5">
  <defs>
    <linearGradient id="bgGrad" x1="0" y1="0" x2="0" y2="128.5" gradientUnits="userSpaceOnUse">
      <stop offset="0"    stop-color="#0a0a0e"/>
      <stop offset="0.35" stop-color="#0f0f14"/>
      <stop offset="0.7"  stop-color="#101015"/>
      <stop offset="1"    stop-color="#16161c"/>
    </linearGradient>
    <linearGradient id="rustGrad" x1="0" y1="0" x2="1" y2="0" gradientUnits="objectBoundingBox">
      <stop offset="0"    stop-color="#7a3418"/>
      <stop offset="0.5"  stop-color="#c8582a"/>
      <stop offset="1"    stop-color="#7a3418"/>
    </linearGradient>
    <linearGradient id="chromeH" x1="0" y1="0" x2="1" y2="0" gradientUnits="objectBoundingBox">
      <stop offset="0"    stop-color="#24231e"/>
      <stop offset="0.5"  stop-color="#8a8880"/>
      <stop offset="1"    stop-color="#24231e"/>
    </linearGradient>
  </defs>

  <rect width="81.28" height="128.5" fill="url(#bgGrad)"/>

  <line x1="3" y1="3.4" x2="78.28" y2="3.4" stroke="url(#chromeH)" stroke-width="0.18"/>
  <line x1="3" y1="3.9" x2="78.28" y2="3.9" stroke="#000000" stroke-width="0.12" opacity="0.9"/>

  <rect x="33.64" y="20.2" width="14" height="0.7" fill="url(#rustGrad)"/>

  <line x1="6" y1="25.0" x2="75.28" y2="25.0" stroke="#3a3934" stroke-width="0.1"/>

  <circle cx="3.2"   cy="28" r="0.5" fill="#c8582a"/>
  <circle cx="78.08" cy="28" r="0.5" fill="#c8582a"/>

  <circle cx="16.00" cy="28" r="7.5" fill="none" stroke="#1c1b17" stroke-width="0.25"/>
  <circle cx="40.64" cy="28" r="7.5" fill="none" stroke="#1c1b17" stroke-width="0.25"/>
  <circle cx="65.28" cy="28" r="7.5" fill="none" stroke="#1c1b17" stroke-width="0.25"/>

  <circle cx="3.2"   cy="52" r="0.5" fill="#c8582a"/>
  <circle cx="78.08" cy="52" r="0.5" fill="#c8582a"/>

  <circle cx="28.64" cy="52" r="7.5" fill="none" stroke="#1c1b17" stroke-width="0.25"/>
  <circle cx="52.64" cy="52" r="7.5" fill="none" stroke="#1c1b17" stroke-width="0.25"/>

  <!-- MOD / CV row (thin divider above, tiny brand mark below) -->
  <line x1="6" y1="67.5" x2="75.28" y2="67.5" stroke="#2a2925" stroke-width="0.1"/>
  <rect x="2" y="69.5" width="77.28" height="15.5" rx="1.0" ry="1.0" fill="#0e1013" opacity="0.55"/>
  <rect x="2" y="69.5" width="77.28" height="15.5" rx="1.0" ry="1.0" fill="none" stroke="#252a30" stroke-width="0.15"/>

  <circle cx="16.00" cy="77" r="5.0" fill="none" stroke="#2f3540" stroke-width="0.28"/>
  <circle cx="40.64" cy="77" r="5.0" fill="none" stroke="#2f3540" stroke-width="0.28"/>
  <circle cx="65.28" cy="77" r="5.0" fill="none" stroke="#5a2f1e" stroke-width="0.28"/>

  <!-- Divider between mod row and IN -->
  <line x1="3" y1="87.5" x2="78.28" y2="87.5" stroke="url(#chromeH)" stroke-width="0.18"/>
  <line x1="3" y1="88.0" x2="78.28" y2="88.0" stroke="#000000" stroke-width="0.12" opacity="0.9"/>

  <!-- IN section (cool tint) -->
  <rect x="2" y="89.5" width="77.28" height="17.5" rx="1.2" ry="1.2" fill="#0d1219" opacity="0.55"/>
  <rect x="2" y="89.5" width="77.28" height="17.5" rx="1.2" ry="1.2" fill="none" stroke="#252a33" stroke-width="0.18"/>

  <circle cx="10.50" cy="97" r="5.2" fill="none" stroke="#2a3340" stroke-width="0.28"/>
  <circle cx="30.00" cy="97" r="5.2" fill="none" stroke="#2a3340" stroke-width="0.28"/>
  <circle cx="52.00" cy="97" r="5.2" fill="none" stroke="#2a3340" stroke-width="0.28"/>
  <circle cx="72.00" cy="97" r="5.2" fill="none" stroke="#2a3340" stroke-width="0.28"/>

  <!-- Full-width rust divider between IN and OUT -->
  <rect x="4" y="108.0" width="73.28" height="0.6" fill="url(#rustGrad)"/>

  <!-- OUT section (warm tint) -->
  <rect x="2" y="109.0" width="77.28" height="15.0" rx="1.2" ry="1.2" fill="#1a0e08" opacity="0.60"/>
  <rect x="2" y="109.0" width="77.28" height="15.0" rx="1.2" ry="1.2" fill="none" stroke="#3a221a" stroke-width="0.18"/>

  <circle cx="10.50" cy="117" r="5.2" fill="none" stroke="#5a2f1e" stroke-width="0.28"/>
  <circle cx="30.00" cy="117" r="5.2" fill="none" stroke="#5a2f1e" stroke-width="0.28"/>
  <circle cx="52.00" cy="117" r="5.2" fill="none" stroke="#5a2f1e" stroke-width="0.28"/>
  <circle cx="72.00" cy="117" r="5.2" fill="none" stroke="#5a2f1e" stroke-width="0.28"/>

  <line x1="3" y1="125.6" x2="78.28" y2="125.6" stroke="url(#chromeH)" stroke-width="0.18"/>
  <line x1="3" y1="126.1" x2="78.28" y2="126.1" stroke="#000000" stroke-width="0.12" opacity="0.9"/>
</svg>
